<?xml version="1.0" standalone="no"?>
<!DOCTYPE svg PUBLIC "-//W3C//DTD SVG 20010904//EN"
 "http://www.w3.org/TR/2001/REC-SVG-20010904/DTD/svg10.dtd">
<svg version="1.0" xmlns="http://www.w3.org/2000/svg"
 width="1101.000000pt" height="1280.000000pt" viewBox="0 0 1101.000000 1280.000000"
 preserveAspectRatio="xMidYMid meet">
<g transform="translate(0.000000,1280.000000) scale(0.100000,-0.100000)"
fill="#000000" stroke="none">
<path d="M0 6403 l0 -6391 2008 -4 c1104 -2 2052 -1 2107 4 55 4 183 12 285
18 1689 100 3263 688 4405 1645 733 614 1197 1191 1575 1960 390 792 594 1642
627 2609 8 220 -19 753 -53 1071 -104 975 -386 1859 -825 2590 -348 580 -790
1084 -1299 1479 -899 700 -2078 1155 -3420 1321 -409 50 -510 55 -1750 85
-282 7 -1064 10 -2057 8 l-1603 -3 0 -6392z m4090 3186 c796 -56 1417 -208
1950 -480 275 -139 419 -240 590 -409 414 -409 659 -977 736 -1703 21 -195 15
-793 -10 -987 -70 -559 -223 -1009 -471 -1390 -388 -597 -1062 -1001 -1977
-1185 -322 -64 -717 -108 -1068 -117 l-115 -3 -3 3135 c-1 1724 0 3141 3 3148
5 14 50 13 365 -9z"/>
</g>
</svg>
