<svg height="512pt" viewBox="0 0 512 512" width="512pt" xmlns="http://www.w3.org/2000/svg"><path d="m382 0h-146c-5.523438 0-10 4.476562-10 10s4.476562 10 10 10h146c60.652344 0 110 49.34375 110 110v252c0 60.65625-49.347656 110-110 110h-252c-60.652344 0-110-49.34375-110-110v-252c0-60.65625 49.347656-110 110-110h26c5.523438 0 10-4.476562 10-10s-4.476562-10-10-10h-26c-71.683594 0-130 58.316406-130 130v252c0 71.683594 58.316406 130 130 130h252c71.683594 0 130-58.316406 130-130v-252c0-71.683594-58.316406-130-130-130zm0 0"/><path d="m356 472h26c49.625 0 90-40.375 90-90v-252c0-49.625-40.375-90-90-90h-252c-49.625 0-90 40.375-90 90v252c0 49.625 40.375 90 90 90h146c5.523438 0 10-4.476562 10-10s-4.476562-10-10-10h-146c-38.597656 0-70-31.402344-70-70v-252c0-38.597656 31.402344-70 70-70h252c38.597656 0 70 31.402344 70 70v252c0 38.597656-31.402344 70-70 70h-26c-5.523438 0-10 4.476562-10 10s4.476562 10 10 10zm0 0"/><path d="m366 256c0-60.652344-49.347656-110-110-110s-110 49.347656-110 110 49.347656 110 110 110 110-49.347656 110-110zm-110 90c-49.625 0-90-40.375-90-90s40.375-90 90-90 90 40.375 90 90-40.375 90-90 90zm0 0"/><path d="m256 186c-38.597656 0-70 31.402344-70 70s31.402344 70 70 70 70-31.402344 70-70-31.402344-70-70-70zm0 120c-27.570312 0-50-22.429688-50-50s22.429688-50 50-50 50 22.429688 50 50-22.429688 50-50 50zm0 0"/><path d="m422 130.003906c0-22.058594-17.945312-40-40-40-22.058594 0-40 17.941406-40 40 0 22.054688 17.941406 40 40 40 22.054688 0 40-17.945312 40-40zm-60 0c0-11.03125 8.972656-20 20-20s20 8.96875 20 20c0 11.027344-8.972656 20-20 20s-20-8.972656-20-20zm0 0"/><path d="m196.003906 20c5.523438 0 10-4.476562 10-10s-4.476562-10-10-10h-.007812c-5.519532 0-9.996094 4.476562-9.996094 10s4.480469 10 10.003906 10zm0 0"/><path d="m315.996094 452c-5.523438 0-9.996094 4.476562-9.996094 10s4.480469 10 10.003906 10c5.523438 0 10-4.476562 10-10s-4.476562-10-10-10zm0 0"/></svg>