<svg height="16" viewBox="0 0 16 16" width="16" xmlns="http://www.w3.org/2000/svg"><g fill="none" fill-rule="evenodd"><path d="m-102-195h375v441h-375z" fill="#1d1f24"/><path d="m95.1543645 9.76859895h-1.3929743c.101476.39398155.1613984.80559415.1613984 1.23103215 0 2.7193464-2.2039665 4.9232352-4.9227692 4.9232352s-4.9228469-2.2038888-4.9228469-4.9232352c0-.425438.0601555-.8370894.1616315-1.23103215h-1.3929743v6.76964755c0 .3394959.2755735.6148364.6159238.6148364h11.076493c.340428 0 .6160791-.2753405.6160791-.6148364v-6.76964755zm.1228663-4.28278693c0-.35337027-.286698-.63994346-.6406785-.63994346h-1.91937c-.353617 0-.6399515.28657319-.6399515.63994346v1.92011308c0 .35312796.2863345.63994346.6399515.63994346h1.91937c.3540209 0 .6406785-.2868155.6406785-.63994346zm-6.2772114 2.43722906c-1.6995381 0-3.0770172 1.37720722-3.0770172 3.07662882 0 1.6992663 1.3775179 3.077289 3.0770172 3.077289 1.6993828 0 3.0771725-1.3780227 3.0771725-3.077289 0-1.69946043-1.3777897-3.07662882-3.0771725-3.07662882zm6.1543451 11.07692012h-12.3085348c-1.0192646 0-1.8458297-.8267593-1.8458297-1.8468783v-12.30721434c0-1.01957529.8265651-1.84586856 1.8458297-1.84586856h12.3084959c1.01942 0 1.8456744.82629327 1.8456744 1.84586856v12.30721434c.0000388 1.020119-.8262156 1.8468783-1.8456355 1.8468783z" fill="#fff" fill-opacity=".3" transform="translate(-81 -3)"/></g></svg>