<svg height="16" viewBox="0 0 13 16" width="13" xmlns="http://www.w3.org/2000/svg"><g fill="none" fill-rule="evenodd"><path d="m-142-195h375v441h-375z" fill="#1d1f24"/><path d="m127.568021 3c-4.366318 0-6.568021 3.13055477-6.568021 5.74107208 0 1.58065602.598484 2.98694352 1.882014 3.51105862.210408.0860192.399028.0029903.460038-.2300576.042447-.1612812.142951-.5681927.187767-.7375126.061514-.2305237.037669-.3113779-.132155-.5122705-.370097-.4365814-.60664-1.00174493-.60664-1.80224765 0-2.32255692 1.737704-4.40165818 4.524843-4.40165818 2.467915 0 3.823873 1.50799598 3.823873 3.52193237 0 2.64985706-1.172735 4.88635596-2.913623 4.88635596-.961512 0-1.681161-.7951436-1.450521-1.7702866.27631-1.1643076.811416-2.42073141.811416-3.26115636 0-.752231-.403805-1.37968564-1.239531-1.37968564-.982832 0-1.772384 1.01677399-1.772384 2.37878978 0 .867454.293165 1.45420972.293165 1.45420972s-1.005745 4.2616197-1.182094 5.007909c-.351184 1.4863261-.052855 3.3084572-.027495 3.4924567.014757.1090871.154912.1349899.21829.0525824.09068-.1183298 1.261317-1.563491 1.659258-3.0074095.112621-.4088533.646522-2.526168.646522-2.526168.319262.6090469 1.252463 1.1455115 2.244849 1.1455115 2.954361 0 4.958744-2.693352 4.958744-6.29850749-.000039-2.72612866-2.309004-5.26491801-5.818315-5.26491801z" fill="#fff" fill-opacity=".3" transform="translate(-121 -3)"/></g></svg>