<svg height="13" viewBox="0 0 16 13" width="16" xmlns="http://www.w3.org/2000/svg"><g fill="none" fill-rule="evenodd"><path d="m-173-196h375v441h-375z" fill="#1d1f24"/><path d="m168 5.53918447c-.58866.26112621-1.22132.43763106-1.88532.5168932.677631-.40625243 1.198213-1.04951456 1.443262-1.81607767-.634292.37619417-1.336777.64935922-2.084505.79654369-.598757-.63798058-1.451884-1.03654369-2.396039-1.03654369-2.118835 0-3.676427 1.97732039-3.197553 4.03056311-2.728156-.13685437-5.146952-1.44376699-6.765942-3.42966991-.859884 1.47506797-.44602 3.40547573 1.015845 4.38252428-.53802-.01700971-1.044311-.16469903-1.486797-.41064078-.035611 1.5208544 1.054214 2.9429515 2.632816 3.2601553-.461981.1257088-.968.1544855-1.48233.0561942.417631 1.3040777 1.62998 2.2531262 3.066408 2.2795728-1.380078 1.0815146-3.118253 1.5645826-4.859845 1.3593398 1.45266.9313398 3.178136 1.474835 5.031883 1.474835 6.094447 0 9.53767-5.1476117 9.330136-9.76446603.641437-.46279612 1.197903-1.04093204 1.637981-1.6992233z" fill="#fff" fill-opacity=".3" transform="translate(-152 -4)"/></g></svg>