<svg viewBox="0 0 512 512" xmlns="http://www.w3.org/2000/svg">
<style type="text/css"><![CDATA[
  .cc-base{fill: #808081;}
]]></style>
<path  class="cc-base" d="m437 0h-362c-41.351562 0-75 33.648438-75 75v362c0 41.351562 33.648438 75 75 75h362c41.351562 0 75-33.648438 75-75v-362c0-41.351562-33.648438-75-75-75zm-180 390c-74.441406 0-135-60.558594-135-135s60.558594-135 135-135 135 60.558594 135 135-60.558594 135-135 135zm150-240c-24.8125 0-45-20.1875-45-45s20.1875-45 45-45 45 20.1875 45 45-20.1875 45-45 45zm0 0"/>
</svg>