<svg id="svg3003" xmlns="http://www.w3.org/2000/svg" viewBox="0 0 51.69 51.56"><defs><style>.cls-1{fill:#1a1a1a;}</style></defs><title>Instagram</title><path id="rect3687" class="cls-1" d="M15,0A15,15,0,0,0,0,15V36.6a15,15,0,0,0,15,15H36.73a15,15,0,0,0,15-15V15a15,15,0,0,0-15-15Zm0,4.43H36.73A10.46,10.46,0,0,1,47.26,15V36.6A10.46,10.46,0,0,1,36.73,47.13H15A10.46,10.46,0,0,1,4.43,36.6V15A10.46,10.46,0,0,1,15,4.43ZM39.72,8.87A3.1,3.1,0,1,0,42.82,12,3.09,3.09,0,0,0,39.72,8.87ZM25.84,12.51A13.28,13.28,0,1,0,39.12,25.78,13.3,13.3,0,0,0,25.84,12.51Zm0,4.43A8.84,8.84,0,1,1,17,25.78,8.81,8.81,0,0,1,25.84,16.94Z"/></svg>