<svg id="svg3003" xmlns="http://www.w3.org/2000/svg" viewBox="0 0 37.83 48.84"><defs><style>.cls-1{fill:#1a1a1a;}</style></defs><title>Pinterest</title><path id="path4115" class="cls-1" d="M19.57,0C6.79,0,0,8.58,0,17.93c0,4.34,2.31,9.75,6,11.47.56.26.86.14,1-.4s.6-2.42.82-3.36a.87.87,0,0,0-.2-.85A11.52,11.52,0,0,1,5.42,18c0-6.54,4.94-12.85,13.37-12.85,7.28,0,12.37,5,12.37,12,0,8-4,13.56-9.31,13.56a4.3,4.3,0,0,1-4.39-5.35c.84-3.52,2.46-7.32,2.46-9.86,0-2.28-1.22-4.17-3.75-4.17-3,0-5.36,3.07-5.36,7.19A10.64,10.64,0,0,0,11.7,23S8.76,35.41,8.23,37.72c-.92,3.92.12,10.28.21,10.83A.3.3,0,0,0,9,48.7c.29-.39,3.83-5.69,4.83-9.53.35-1.38,1.84-7,1.84-7,1,1.84,3.79,3.4,6.79,3.4,8.93,0,15.37-8.22,15.37-18.42C37.83,7.32,29.84,0,19.57,0"/></svg>