<svg id="svg3003" xmlns="http://www.w3.org/2000/svg" viewBox="0 0 50.79 41.27"><defs><style>.cls-1{fill:#1a1a1a;}</style></defs><title>Twitter</title><path id="path22" class="cls-1" d="M50.79,4.89a21.44,21.44,0,0,1-6,1.64A10.49,10.49,0,0,0,49.39.76a20.81,20.81,0,0,1-6.62,2.53,10.42,10.42,0,0,0-18,7.13A10.25,10.25,0,0,0,25,12.79,29.58,29.58,0,0,1,3.54,1.91,10.44,10.44,0,0,0,6.76,15.82,10.38,10.38,0,0,1,2,14.52v.13A10.41,10.41,0,0,0,10.4,24.86a10.3,10.3,0,0,1-2.74.37,10.42,10.42,0,0,1-2-.19,10.43,10.43,0,0,0,9.73,7.24A20.94,20.94,0,0,1,2.49,36.74,20.55,20.55,0,0,1,0,36.59a29.46,29.46,0,0,0,16,4.68c19.17,0,29.65-15.87,29.65-29.64q0-.68,0-1.35a21.32,21.32,0,0,0,5.2-5.39"/></svg>