<?xml version="1.0" encoding="UTF-8"?>
<svg xmlns="http://www.w3.org/2000/svg" xmlns:xlink="http://www.w3.org/1999/xlink" width="32pt" height="32pt" viewBox="0 0 32 32" version="1.1">
<g id="surface16624348">
<path style=" stroke:none;fill-rule:nonzero;fill:rgb(28.627451%,29.019608%,30.588235%);fill-opacity:1;" d="M 16.09375 4 C 11.015625 4 6 7.382812 6 12.863281 C 6 16.34375 7.957031 18.324219 9.144531 18.324219 C 9.636719 18.324219 9.917969 16.957031 9.917969 16.574219 C 9.917969 16.113281 8.746094 15.132812 8.746094 13.214844 C 8.746094 9.238281 11.773438 6.417969 15.691406 6.417969 C 19.0625 6.417969 21.554688 8.332031 21.554688 11.851562 C 21.554688 14.480469 20.5 19.40625 17.085938 19.40625 C 15.855469 19.40625 14.800781 18.515625 14.800781 17.242188 C 14.800781 15.371094 16 13.558594 16 11.628906 C 16 8.351562 11.460938 8.945312 11.460938 12.90625 C 11.460938 13.738281 11.566406 14.65625 11.9375 15.414062 C 11.253906 18.351562 10 23.039062 10 26.066406 C 10 27 10.132812 27.921875 10.222656 28.855469 C 10.390625 29.046875 10.308594 29.027344 10.5625 28.933594 C 13.058594 25.519531 12.828125 24.542969 13.953125 20.074219 C 14.5625 21.234375 16.136719 21.855469 17.382812 21.855469 C 22.640625 21.855469 25 16.734375 25 12.117188 C 25 7.207031 20.753906 4 16.09375 4 Z M 16.09375 4 "/>
</g>
</svg>
