<svg width="60" height="30" viewBox="0 0 60 30" fill="none" xmlns="http://www.w3.org/2000/svg">
<path d="M17.34 15.324C17.34 16.596 17.128 17.764 16.704 18.828C16.28 19.892 15.684 20.808 14.916 21.576C14.148 22.344 13.224 22.94 12.144 23.364C11.064 23.788 9.864 24 8.544 24H1.932V6.648H8.544C9.864 6.648 11.064 6.864 12.144 7.296C13.224 7.72 14.148 8.316 14.916 9.084C15.684 9.844 16.28 10.756 16.704 11.82C17.128 12.884 17.34 14.052 17.34 15.324ZM14.028 15.324C14.028 14.372 13.9 13.52 13.644 12.768C13.396 12.008 13.032 11.368 12.552 10.848C12.08 10.32 11.504 9.916 10.824 9.636C10.152 9.356 9.392 9.216 8.544 9.216H5.172V21.432H8.544C9.392 21.432 10.152 21.292 10.824 21.012C11.504 20.732 12.08 20.332 12.552 19.812C13.032 19.284 13.396 18.644 13.644 17.892C13.9 17.132 14.028 16.276 14.028 15.324ZM27.1205 16.428C27.1205 16.044 27.0645 15.684 26.9525 15.348C26.8485 15.004 26.6885 14.704 26.4725 14.448C26.2565 14.192 25.9805 13.992 25.6445 13.848C25.3165 13.696 24.9325 13.62 24.4925 13.62C23.6365 13.62 22.9605 13.864 22.4645 14.352C21.9765 14.84 21.6645 15.532 21.5285 16.428H27.1205ZM21.4685 18.216C21.5165 18.848 21.6285 19.396 21.8045 19.86C21.9805 20.316 22.2125 20.696 22.5005 21C22.7885 21.296 23.1285 21.52 23.5205 21.672C23.9205 21.816 24.3605 21.888 24.8405 21.888C25.3205 21.888 25.7325 21.832 26.0765 21.72C26.4285 21.608 26.7325 21.484 26.9885 21.348C27.2525 21.212 27.4805 21.088 27.6725 20.976C27.8725 20.864 28.0645 20.808 28.2485 20.808C28.4965 20.808 28.6805 20.9 28.8005 21.084L29.6525 22.164C29.3245 22.548 28.9565 22.872 28.5485 23.136C28.1405 23.392 27.7125 23.6 27.2645 23.76C26.8245 23.912 26.3725 24.02 25.9085 24.084C25.4525 24.148 25.0085 24.18 24.5765 24.18C23.7205 24.18 22.9245 24.04 22.1885 23.76C21.4525 23.472 20.8125 23.052 20.2685 22.5C19.7245 21.94 19.2965 21.252 18.9845 20.436C18.6725 19.612 18.5165 18.66 18.5165 17.58C18.5165 16.74 18.6525 15.952 18.9245 15.216C19.1965 14.472 19.5845 13.828 20.0885 13.284C20.6005 12.732 21.2205 12.296 21.9485 11.976C22.6845 11.656 23.5125 11.496 24.4325 11.496C25.2085 11.496 25.9245 11.62 26.5805 11.868C27.2365 12.116 27.8005 12.48 28.2725 12.96C28.7445 13.432 29.1125 14.016 29.3765 14.712C29.6485 15.4 29.7845 16.188 29.7845 17.076C29.7845 17.524 29.7365 17.828 29.6405 17.988C29.5445 18.14 29.3605 18.216 29.0885 18.216H21.4685ZM40.4596 14.292C40.3716 14.404 40.2836 14.492 40.1956 14.556C40.1156 14.62 39.9956 14.652 39.8356 14.652C39.6836 14.652 39.5356 14.608 39.3916 14.52C39.2476 14.424 39.0756 14.32 38.8756 14.208C38.6756 14.088 38.4356 13.984 38.1556 13.896C37.8836 13.8 37.5436 13.752 37.1356 13.752C36.6156 13.752 36.1596 13.848 35.7676 14.04C35.3756 14.224 35.0476 14.492 34.7836 14.844C34.5276 15.196 34.3356 15.624 34.2076 16.128C34.0796 16.624 34.0156 17.188 34.0156 17.82C34.0156 18.476 34.0836 19.06 34.2196 19.572C34.3636 20.084 34.5676 20.516 34.8316 20.868C35.0956 21.212 35.4156 21.476 35.7916 21.66C36.1676 21.836 36.5916 21.924 37.0636 21.924C37.5356 21.924 37.9156 21.868 38.2036 21.756C38.4996 21.636 38.7476 21.508 38.9476 21.372C39.1476 21.228 39.3196 21.1 39.4636 20.988C39.6156 20.868 39.7836 20.808 39.9676 20.808C40.2076 20.808 40.3876 20.9 40.5076 21.084L41.3596 22.164C41.0316 22.548 40.6756 22.872 40.2916 23.136C39.9076 23.392 39.5076 23.6 39.0916 23.76C38.6836 23.912 38.2596 24.02 37.8196 24.084C37.3876 24.148 36.9556 24.18 36.5236 24.18C35.7636 24.18 35.0476 24.04 34.3756 23.76C33.7036 23.472 33.1156 23.056 32.6116 22.512C32.1076 21.968 31.7076 21.304 31.4116 20.52C31.1236 19.728 30.9796 18.828 30.9796 17.82C30.9796 16.916 31.1076 16.08 31.3636 15.312C31.6276 14.536 32.0116 13.868 32.5156 13.308C33.0196 12.74 33.6436 12.296 34.3876 11.976C35.1316 11.656 35.9876 11.496 36.9556 11.496C37.8756 11.496 38.6796 11.644 39.3676 11.94C40.0636 12.236 40.6876 12.66 41.2396 13.212L40.4596 14.292ZM45.8125 6.168V16.38H46.3645C46.5645 16.38 46.7205 16.356 46.8325 16.308C46.9525 16.252 47.0725 16.144 47.1925 15.984L50.2525 12.204C50.3805 12.036 50.5205 11.908 50.6725 11.82C50.8325 11.732 51.0365 11.688 51.2845 11.688H53.9965L50.1685 16.26C49.8965 16.62 49.6005 16.896 49.2805 17.088C49.4485 17.208 49.5965 17.348 49.7245 17.508C49.8605 17.668 49.9885 17.84 50.1085 18.024L54.2125 24H51.5365C51.3045 24 51.1045 23.964 50.9365 23.892C50.7685 23.812 50.6285 23.672 50.5165 23.472L47.3725 18.804C47.2605 18.62 47.1445 18.5 47.0245 18.444C46.9045 18.388 46.7245 18.36 46.4845 18.36H45.8125V24H42.8485V6.168H45.8125Z" fill="#1D1F24"/>
<rect x="56" y="20" width="4" height="4" fill="#FF565C"/>
</svg>
