<svg fill="#000000" xmlns="http://www.w3.org/2000/svg" viewBox="0 0 50 50" width="50px" height="50px"><path d="M 12 3 C 7.0414839 3 3 7.0414839 3 12 L 3 38 C 3 42.958516 7.0414839 47 12 47 L 38 47 C 42.958516 47 47 42.958516 47 38 L 47 12 C 47 7.0414839 42.958516 3 38 3 L 12 3 z M 12 5 L 38 5 C 41.877484 5 45 8.1225161 45 12 L 45 38 C 45 41.877484 41.877484 45 38 45 L 12 45 C 8.1225161 45 5 41.877484 5 38 L 5 12 C 5 8.1225161 8.1225161 5 12 5 z M 38 7 C 36.904545 7 36 7.9045455 36 9 L 36 12 C 36 13.095455 36.904545 14 38 14 L 41 14 C 42.095455 14 43 13.095455 43 12 L 43 9 C 43 7.9045455 42.095455 7 41 7 L 38 7 z M 38 9 L 41 9 L 41 12 L 38 12 L 38 9 z M 25 12 C 21.331661 12 18.01623 13.540914 15.648438 16 L 8 16 A 1.0001 1.0001 0 0 0 7 17 L 7 37 C 7 40.301625 9.6983746 43 13 43 L 37 43 C 40.301625 43 43 40.301625 43 37 L 43 17 A 1.0001 1.0001 0 0 0 42 16 L 34.351562 16 C 31.98377 13.540914 28.668339 12 25 12 z M 25 14 C 31.073477 14 36 18.926523 36 25 C 36 31.073477 31.073477 36 25 36 C 18.926523 36 14 31.073477 14 25 C 14 18.926523 18.926523 14 25 14 z M 25 16 A 1.0001 1.0001 0 0 0 24.589844 16.083984 C 19.831681 16.311415 16 20.186041 16 25 C 16 29.959394 20.041635 34 25 34 C 29.958365 34 34 29.959394 34 25 C 34 20.187371 30.170385 16.313404 25.414062 16.083984 A 1.0001 1.0001 0 0 0 25 16 z M 9 18 L 14.068359 18 C 12.766308 20.024088 12 22.423973 12 25 C 12 32.158523 17.841477 38 25 38 C 32.158523 38 38 32.158523 38 25 C 38 22.423973 37.233692 20.024088 35.931641 18 L 41 18 L 41 37 C 41 39.220375 39.220375 41 37 41 L 13 41 C 10.779625 41 9 39.220375 9 37 L 9 18 z M 25 18 C 28.877635 18 32 21.121394 32 25 C 32 28.878606 28.877635 32 25 32 C 21.122365 32 18 28.878606 18 25 C 18 21.121394 21.122365 18 25 18 z"/></svg>